<svg width="40" height="36" viewBox="0 0 40 36" fill="none" xmlns="http://www.w3.org/2000/svg">
<path d="M5.71429 0.5C2.5625 0.5 0 2.74219 0 5.5V30.5C0 33.2578 2.5625 35.5 5.71429 35.5H14.4821V24.1094H9.76786V18H14.4821V15.3672C14.4821 8.5625 18 5.40625 25.6429 5.40625C27.0893 5.40625 29.5893 5.65625 30.6161 5.90625V11.4375C30.0804 11.3906 29.1429 11.3594 27.9732 11.3594C24.2232 11.3594 22.7768 12.6016 22.7768 15.8281V18H30.2411L28.9554 24.1094H22.7679V35.5H34.2857C37.4375 35.5 40 33.2578 40 30.5V5.5C40 2.74219 37.4375 0.5 34.2857 0.5H5.71429Z" fill="#F04A3E" fill-opacity="0.5"/>
</svg>
