<svg width="181" height="169" viewBox="0 0 181 169" fill="none" xmlns="http://www.w3.org/2000/svg">
<g filter="url(#filter0_d_107_127)">
<path fill-rule="evenodd" clip-rule="evenodd" d="M4 152.056C4 149.683 4.82849 147.408 6.30321 145.731C7.77793 144.053 9.77807 143.111 11.8636 143.111H169.136C171.222 143.111 173.222 144.053 174.697 145.731C176.172 147.408 177 149.683 177 152.056C177 154.428 176.172 156.703 174.697 158.38C173.222 160.058 171.222 161 169.136 161H11.8636C9.77807 161 7.77793 160.058 6.30321 158.38C4.82849 156.703 4 154.428 4 152.056ZM4 80.5C4 78.1278 4.82849 75.8527 6.30321 74.1753C7.77793 72.4979 9.77807 71.5556 11.8636 71.5556H169.136C171.222 71.5556 173.222 72.4979 174.697 74.1753C176.172 75.8527 177 78.1278 177 80.5C177 82.8722 176.172 85.1473 174.697 86.8247C173.222 88.5021 171.222 89.4444 169.136 89.4444H11.8636C9.77807 89.4444 7.77793 88.5021 6.30321 86.8247C4.82849 85.1473 4 82.8722 4 80.5ZM4 8.94444C4 6.57223 4.82849 4.29718 6.30321 2.61977C7.77793 0.94236 9.77807 0 11.8636 0H169.136C171.222 0 173.222 0.94236 174.697 2.61977C176.172 4.29718 177 6.57223 177 8.94444C177 11.3167 176.172 13.5917 174.697 15.2691C173.222 16.9465 171.222 17.8889 169.136 17.8889H11.8636C9.77807 17.8889 7.77793 16.9465 6.30321 15.2691C4.82849 13.5917 4 11.3167 4 8.94444Z" fill="white"/>
</g>
<defs>
<filter id="filter0_d_107_127" x="0" y="0" width="181" height="169" filterUnits="userSpaceOnUse" color-interpolation-filters="sRGB">
<feFlood flood-opacity="0" result="BackgroundImageFix"/>
<feColorMatrix in="SourceAlpha" type="matrix" values="0 0 0 0 0 0 0 0 0 0 0 0 0 0 0 0 0 0 127 0" result="hardAlpha"/>
<feOffset dy="4"/>
<feGaussianBlur stdDeviation="2"/>
<feComposite in2="hardAlpha" operator="out"/>
<feColorMatrix type="matrix" values="0 0 0 0 0 0 0 0 0 0 0 0 0 0 0 0 0 0 0.25 0"/>
<feBlend mode="normal" in2="BackgroundImageFix" result="effect1_dropShadow_107_127"/>
<feBlend mode="normal" in="SourceGraphic" in2="effect1_dropShadow_107_127" result="shape"/>
</filter>
</defs>
</svg>
